<svg xmlns="http://www.w3.org/2000/svg" xmlns:xlink="http://www.w3.org/1999/xlink" width="500" zoomAndPan="magnify" viewBox="0 0 375 374.999991" height="500" preserveAspectRatio="xMidYMid meet" version="1.0"><defs><clipPath id="23eb7fbd60"><path d="M 125.800781 197.710938 L 370.839844 197.710938 L 370.839844 308.847656 L 125.800781 308.847656 Z M 125.800781 197.710938 " clip-rule="nonzero"/></clipPath><clipPath id="81bf9eb599"><path d="M 96 108 L 292 108 L 292 355.417969 L 96 355.417969 Z M 96 108 " clip-rule="nonzero"/></clipPath><clipPath id="6099ed3d13"><path d="M 3.871094 286 L 61 286 L 61 323 L 3.871094 323 Z M 3.871094 286 " clip-rule="nonzero"/></clipPath><clipPath id="8462072bb3"><path d="M 30 19.324219 L 342.636719 19.324219 L 342.636719 282 L 30 282 Z M 30 19.324219 " clip-rule="nonzero"/></clipPath></defs><g clip-path="url(#23eb7fbd60)"><path fill="#5aa9e6" d="M 354.386719 254.566406 C 352.496094 252.039062 350.539062 249.53125 348.515625 247.070312 L 347.09375 245.339844 C 346.847656 245.050781 346.605469 244.761719 346.359375 244.472656 L 345.625 243.609375 C 345.136719 243.03125 344.648438 242.476562 344.15625 241.902344 L 342.644531 240.214844 L 341.890625 239.371094 C 341.644531 239.082031 341.378906 238.816406 341.113281 238.550781 L 339.578125 236.886719 L 339.199219 236.464844 L 338.800781 236.066406 L 337.199219 234.425781 C 336.933594 234.160156 336.664062 233.890625 336.398438 233.625 L 334.773438 232.027344 C 334.507812 231.761719 334.242188 231.496094 333.976562 231.230469 L 333.152344 230.453125 L 331.484375 228.902344 L 329.796875 227.371094 L 328.949219 226.617188 L 328.082031 225.863281 L 326.347656 224.375 L 324.570312 222.933594 L 323.679688 222.203125 L 322.769531 221.492188 C 322.167969 221.027344 321.570312 220.558594 320.96875 220.09375 L 319.121094 218.71875 C 318.523438 218.253906 317.878906 217.832031 317.253906 217.386719 L 316.320312 216.722656 L 315.855469 216.390625 L 315.367188 216.078125 L 313.453125 214.792969 C 313.296875 214.683594 313.140625 214.59375 312.964844 214.480469 L 312.476562 214.171875 L 311.496094 213.550781 C 311.164062 213.351562 310.851562 213.128906 310.519531 212.929688 L 309.519531 212.332031 L 308.515625 211.730469 L 308.027344 211.441406 C 307.871094 211.355469 307.695312 211.242188 307.515625 211.15625 L 305.492188 210.023438 C 305.316406 209.933594 305.160156 209.847656 304.980469 209.757812 L 304.472656 209.492188 L 303.449219 208.957031 L 302.9375 208.691406 L 302.671875 208.558594 L 302.402344 208.425781 L 301.359375 207.914062 C 300.667969 207.582031 299.980469 207.226562 299.269531 206.917969 C 296.46875 205.609375 293.597656 204.457031 290.664062 203.414062 L 289.574219 203.011719 C 289.21875 202.878906 288.839844 202.769531 288.460938 202.636719 L 287.351562 202.28125 L 286.796875 202.105469 L 286.238281 201.925781 C 285.503906 201.703125 284.75 201.484375 284.015625 201.261719 L 281.769531 200.660156 C 278.769531 199.90625 275.746094 199.285156 272.699219 198.820312 C 271.230469 198.644531 269.699219 198.464844 268.1875 198.289062 L 265.894531 198.066406 L 263.605469 197.910156 C 260.539062 197.734375 257.492188 197.710938 254.445312 197.800781 C 248.375 198 242.351562 198.753906 236.503906 199.972656 C 230.65625 201.195312 224.941406 202.835938 219.40625 204.832031 C 216.648438 205.832031 213.914062 206.917969 211.246094 208.09375 C 208.578125 209.246094 205.929688 210.488281 203.332031 211.796875 C 192.96875 217.03125 183.277344 223.265625 174.160156 230.121094 C 169.601562 233.558594 165.175781 237.132812 160.886719 240.859375 C 156.59375 244.585938 152.4375 248.421875 148.414062 252.394531 C 146.390625 254.367188 144.410156 256.386719 142.453125 258.425781 C 140.5 260.46875 138.585938 262.53125 136.695312 264.617188 C 134.804688 266.699219 132.960938 268.832031 131.136719 270.984375 C 129.316406 273.132812 127.535156 275.308594 125.824219 277.527344 C 127.734375 275.484375 129.738281 273.511719 131.761719 271.558594 C 133.785156 269.605469 135.828125 267.699219 137.898438 265.8125 C 139.964844 263.929688 142.078125 262.085938 144.210938 260.269531 C 146.34375 258.449219 148.503906 256.675781 150.679688 254.921875 C 155.039062 251.417969 159.484375 248.066406 164.042969 244.851562 C 168.601562 241.632812 173.25 238.59375 177.984375 235.734375 C 182.71875 232.871094 187.542969 230.1875 192.480469 227.726562 C 197.394531 225.261719 202.417969 223.042969 207.488281 221.09375 C 210.023438 220.117188 212.578125 219.207031 215.160156 218.386719 C 217.738281 217.566406 220.316406 216.8125 222.917969 216.167969 C 228.121094 214.859375 233.367188 213.90625 238.613281 213.351562 C 243.863281 212.796875 249.085938 212.683594 254.246094 213.039062 C 256.824219 213.21875 259.382812 213.507812 261.914062 213.90625 L 263.804688 214.238281 L 265.671875 214.613281 C 266.917969 214.882812 268.164062 215.167969 269.386719 215.503906 C 271.855469 216.144531 274.277344 216.898438 276.632812 217.765625 L 278.414062 218.429688 L 280.167969 219.140625 L 280.613281 219.316406 L 281.035156 219.519531 L 281.902344 219.894531 C 282.191406 220.027344 282.480469 220.140625 282.769531 220.273438 L 283.617188 220.671875 C 285.90625 221.757812 288.128906 222.933594 290.308594 224.242188 C 290.863281 224.554688 291.398438 224.886719 291.929688 225.21875 L 292.730469 225.730469 L 292.933594 225.863281 L 293.53125 226.261719 L 294.332031 226.792969 L 294.734375 227.058594 C 294.867188 227.148438 295 227.238281 295.132812 227.324219 L 296.6875 228.414062 C 296.824219 228.5 296.957031 228.589844 297.066406 228.679688 L 297.445312 228.96875 L 298.199219 229.542969 L 298.957031 230.097656 C 299.203125 230.296875 299.46875 230.5 299.714844 230.675781 L 300.46875 231.253906 L 300.847656 231.539062 C 300.980469 231.628906 301.089844 231.742188 301.226562 231.828125 L 302.691406 233.050781 L 303.070312 233.359375 L 303.425781 233.671875 L 304.160156 234.292969 C 304.648438 234.714844 305.136719 235.113281 305.605469 235.554688 L 307.027344 236.84375 C 307.496094 237.285156 307.960938 237.730469 308.429688 238.171875 L 309.117188 238.839844 L 309.808594 239.527344 L 311.164062 240.878906 L 312.496094 242.277344 L 313.164062 242.988281 L 313.808594 243.695312 L 315.097656 245.140625 L 316.367188 246.601562 L 317.011719 247.335938 C 317.210938 247.578125 317.433594 247.824219 317.632812 248.089844 L 318.878906 249.574219 C 319.078125 249.820312 319.277344 250.085938 319.480469 250.328125 L 320.078125 251.085938 L 320.679688 251.839844 L 320.992188 252.214844 L 321.28125 252.613281 L 322.457031 254.167969 C 322.65625 254.433594 322.859375 254.679688 323.035156 254.945312 L 323.613281 255.742188 L 324.769531 257.316406 C 325.148438 257.851562 325.527344 258.382812 325.902344 258.914062 L 326.460938 259.714844 C 326.636719 259.980469 326.839844 260.246094 327.015625 260.511719 L 328.105469 262.152344 C 329.148438 263.707031 330.152344 265.28125 331.152344 266.878906 L 315.03125 275.441406 L 368.613281 308.847656 L 370.816406 245.847656 Z M 354.386719 254.566406 " fill-opacity="1" fill-rule="nonzero"/></g><g clip-path="url(#81bf9eb599)"><path fill="#272727" d="M 224.070312 141.28125 L 207.539062 164.757812 L 185.613281 195.894531 L 253.269531 166.535156 L 253.269531 216.773438 C 253.269531 218.890625 253.117188 220.992188 252.808594 223.085938 C 252.503906 225.175781 252.050781 227.234375 251.445312 229.261719 C 250.839844 231.289062 250.09375 233.257812 249.203125 235.175781 C 248.3125 237.09375 247.285156 238.9375 246.128906 240.703125 C 244.96875 242.472656 243.6875 244.148438 242.285156 245.726562 C 240.882812 247.308594 239.375 248.78125 237.757812 250.144531 C 236.144531 251.503906 234.4375 252.742188 232.644531 253.855469 C 230.847656 254.96875 228.980469 255.945312 227.042969 256.789062 L 133.769531 297.640625 C 132.378906 298.25 131.011719 298.910156 129.667969 299.617188 C 128.328125 300.328125 127.011719 301.082031 125.726562 301.886719 C 124.4375 302.691406 123.179688 303.539062 121.957031 304.433594 C 120.730469 305.328125 119.539062 306.265625 118.378906 307.246094 C 117.222656 308.230469 116.101562 309.25 115.015625 310.3125 C 113.929688 311.375 112.886719 312.476562 111.882812 313.613281 C 110.878906 314.75 109.914062 315.925781 108.996094 317.132812 C 108.074219 318.339844 107.199219 319.582031 106.371094 320.851562 C 105.539062 322.121094 104.757812 323.421875 104.019531 324.75 C 103.285156 326.078125 102.597656 327.433594 101.960938 328.808594 C 101.320312 330.1875 100.734375 331.585938 100.195312 333.007812 C 99.660156 334.429688 99.175781 335.867188 98.742188 337.320312 C 98.308594 338.777344 97.929688 340.246094 97.601562 341.730469 C 97.273438 343.214844 97.003906 344.707031 96.785156 346.210938 C 96.566406 347.714844 96.402344 349.222656 96.289062 350.738281 C 96.179688 352.253906 96.125 353.769531 96.125 355.289062 L 96.125 355.335938 L 264.886719 281.65625 C 266.828125 280.8125 268.695312 279.835938 270.492188 278.722656 C 272.285156 277.609375 273.992188 276.371094 275.609375 275.007812 C 277.226562 273.648438 278.738281 272.175781 280.140625 270.59375 C 281.542969 269.011719 282.824219 267.335938 283.980469 265.566406 C 285.140625 263.800781 286.167969 261.957031 287.058594 260.039062 C 287.949219 258.121094 288.699219 256.148438 289.300781 254.121094 C 289.90625 252.09375 290.363281 250.035156 290.667969 247.941406 C 290.972656 245.847656 291.125 243.742188 291.125 241.628906 L 291.125 108.804688 L 232.910156 134.070312 C 231.132812 134.839844 229.492188 135.835938 227.988281 137.0625 C 226.488281 138.285156 225.179688 139.691406 224.070312 141.28125 Z M 224.070312 141.28125 " fill-opacity="1" fill-rule="nonzero"/></g><path fill="#8c5383" d="M 53.4375 213.285156 C 54.902344 213.285156 56.308594 212.992188 57.652344 212.414062 L 84.039062 201.035156 C 84.683594 200.757812 85.296875 200.417969 85.875 200.019531 C 86.453125 199.621094 86.988281 199.171875 87.476562 198.667969 C 87.96875 198.164062 88.402344 197.617188 88.785156 197.027344 C 89.167969 196.4375 89.492188 195.816406 89.75 195.164062 C 90.011719 194.511719 90.207031 193.839844 90.332031 193.148438 C 90.460938 192.457031 90.519531 191.757812 90.511719 191.054688 C 90.503906 190.351562 90.425781 189.65625 90.277344 188.96875 C 90.132812 188.28125 89.921875 187.617188 89.644531 186.96875 C 89.367188 186.324219 89.03125 185.710938 88.632812 185.132812 C 88.234375 184.550781 87.785156 184.015625 87.28125 183.527344 C 86.777344 183.035156 86.234375 182.597656 85.644531 182.214844 C 85.054688 181.832031 84.433594 181.511719 83.78125 181.25 C 83.128906 180.988281 82.457031 180.796875 81.769531 180.667969 C 81.078125 180.539062 80.382812 180.480469 79.679688 180.488281 C 78.976562 180.496094 78.28125 180.574219 77.59375 180.722656 C 76.910156 180.867188 76.242188 181.078125 75.597656 181.355469 L 49.210938 192.738281 C 48.648438 192.976562 48.113281 193.265625 47.597656 193.597656 C 47.085938 193.933594 46.605469 194.304688 46.15625 194.722656 C 45.707031 195.136719 45.296875 195.589844 44.925781 196.078125 C 44.554688 196.5625 44.226562 197.078125 43.945312 197.621094 C 43.660156 198.164062 43.425781 198.726562 43.238281 199.308594 C 43.050781 199.890625 42.917969 200.484375 42.832031 201.09375 C 42.746094 201.699219 42.714844 202.308594 42.734375 202.921875 C 42.753906 203.53125 42.824219 204.136719 42.949219 204.738281 C 43.070312 205.335938 43.246094 205.921875 43.46875 206.492188 C 43.691406 207.0625 43.960938 207.609375 44.28125 208.132812 C 44.597656 208.65625 44.957031 209.148438 45.359375 209.609375 C 45.761719 210.070312 46.199219 210.496094 46.671875 210.882812 C 47.148438 211.269531 47.652344 211.613281 48.183594 211.910156 C 48.71875 212.210938 49.273438 212.464844 49.847656 212.667969 C 50.425781 212.875 51.015625 213.027344 51.617188 213.128906 C 52.21875 213.234375 52.828125 213.285156 53.4375 213.285156 Z M 53.4375 213.285156 " fill-opacity="1" fill-rule="nonzero"/><path fill="#8c5383" d="M 80.609375 272.5 L 72.289062 275.910156 C 71.644531 276.1875 71.03125 276.523438 70.453125 276.921875 C 69.871094 277.320312 69.335938 277.769531 68.847656 278.273438 C 68.355469 278.777344 67.917969 279.324219 67.535156 279.914062 C 67.152344 280.503906 66.832031 281.125 66.570312 281.777344 C 66.308594 282.429688 66.113281 283.101562 65.984375 283.796875 C 65.859375 284.488281 65.796875 285.183594 65.808594 285.886719 C 65.816406 286.589844 65.894531 287.285156 66.039062 287.976562 C 66.183594 288.664062 66.398438 289.332031 66.675781 289.976562 C 66.953125 290.625 67.289062 291.238281 67.6875 291.816406 C 68.085938 292.394531 68.535156 292.929688 69.039062 293.421875 C 69.542969 293.914062 70.089844 294.351562 70.679688 294.734375 C 71.269531 295.117188 71.890625 295.4375 72.542969 295.699219 C 73.195312 295.957031 73.867188 296.152344 74.558594 296.28125 C 75.25 296.40625 75.945312 296.46875 76.648438 296.457031 C 77.351562 296.449219 78.046875 296.371094 78.730469 296.222656 C 79.417969 296.074219 80.085938 295.863281 80.730469 295.585938 L 89.054688 292.175781 C 89.699219 291.898438 90.3125 291.558594 90.890625 291.160156 C 91.464844 290.761719 92 290.308594 92.488281 289.804688 C 92.976562 289.300781 93.414062 288.753906 93.796875 288.167969 C 94.175781 287.578125 94.496094 286.957031 94.757812 286.300781 C 95.015625 285.648438 95.210938 284.976562 95.335938 284.285156 C 95.464844 283.597656 95.523438 282.898438 95.515625 282.195312 C 95.503906 281.496094 95.425781 280.800781 95.28125 280.113281 C 95.136719 279.425781 94.921875 278.757812 94.644531 278.113281 C 94.371094 277.46875 94.03125 276.855469 93.632812 276.277344 C 93.238281 275.699219 92.785156 275.164062 92.285156 274.671875 C 91.78125 274.183594 91.234375 273.746094 90.648438 273.363281 C 90.058594 272.980469 89.4375 272.65625 88.789062 272.398438 C 88.136719 272.136719 87.464844 271.941406 86.773438 271.8125 C 86.085938 271.683594 85.390625 271.625 84.6875 271.632812 C 83.984375 271.644531 83.292969 271.71875 82.605469 271.867188 C 81.917969 272.011719 81.253906 272.222656 80.609375 272.5 Z M 80.609375 272.5 " fill-opacity="1" fill-rule="nonzero"/><g clip-path="url(#6099ed3d13)"><path fill="#8c5383" d="M 46.078125 287.066406 L 10.34375 302.203125 C 9.699219 302.480469 9.085938 302.816406 8.507812 303.214844 C 7.929688 303.613281 7.394531 304.066406 6.902344 304.570312 C 6.414062 305.074219 5.976562 305.621094 5.59375 306.210938 C 5.210938 306.800781 4.890625 307.421875 4.632812 308.074219 C 4.371094 308.726562 4.175781 309.398438 4.050781 310.089844 C 3.921875 310.78125 3.863281 311.480469 3.871094 312.183594 C 3.878906 312.886719 3.957031 313.582031 4.105469 314.269531 C 4.25 314.957031 4.460938 315.621094 4.738281 316.269531 C 5.015625 316.914062 5.355469 317.527344 5.753906 318.105469 C 6.148438 318.6875 6.601562 319.222656 7.105469 319.710938 C 7.605469 320.203125 8.152344 320.640625 8.742188 321.023438 C 9.332031 321.40625 9.953125 321.726562 10.605469 321.988281 C 11.257812 322.246094 11.929688 322.441406 12.617188 322.570312 C 13.308594 322.699219 14.007812 322.757812 14.707031 322.746094 C 15.410156 322.738281 16.105469 322.660156 16.792969 322.515625 C 17.480469 322.367188 18.144531 322.15625 18.789062 321.878906 L 54.523438 306.742188 C 55.167969 306.464844 55.78125 306.125 56.359375 305.730469 C 56.9375 305.332031 57.472656 304.878906 57.964844 304.375 C 58.453125 303.871094 58.890625 303.324219 59.273438 302.734375 C 59.65625 302.144531 59.976562 301.523438 60.234375 300.871094 C 60.496094 300.21875 60.691406 299.546875 60.816406 298.855469 C 60.945312 298.164062 61.003906 297.464844 60.996094 296.761719 C 60.988281 296.058594 60.910156 295.363281 60.761719 294.675781 C 60.617188 293.988281 60.40625 293.320312 60.128906 292.675781 C 59.851562 292.03125 59.511719 291.417969 59.113281 290.835938 C 58.714844 290.257812 58.265625 289.722656 57.761719 289.234375 C 57.261719 288.742188 56.714844 288.304688 56.125 287.921875 C 55.535156 287.539062 54.914062 287.21875 54.261719 286.957031 C 53.609375 286.695312 52.9375 286.503906 52.246094 286.375 C 51.558594 286.246094 50.859375 286.1875 50.160156 286.195312 C 49.457031 286.207031 48.761719 286.285156 48.074219 286.429688 C 47.386719 286.578125 46.722656 286.789062 46.078125 287.066406 Z M 46.078125 287.066406 " fill-opacity="1" fill-rule="nonzero"/></g><g clip-path="url(#8462072bb3)"><path fill="#8c5383" d="M 342.636719 19.40625 C 342.636719 20.929688 342.582031 22.449219 342.472656 23.96875 C 342.363281 25.488281 342.199219 27.003906 341.976562 28.507812 C 341.757812 30.015625 341.484375 31.515625 341.152344 33 C 340.824219 34.488281 340.441406 35.960938 340.007812 37.421875 C 339.570312 38.882812 339.082031 40.324219 338.542969 41.746094 C 338.003906 43.171875 337.414062 44.574219 336.769531 45.957031 C 336.128906 47.335938 335.4375 48.691406 334.695312 50.023438 C 333.957031 51.355469 333.167969 52.65625 332.332031 53.929688 C 331.5 55.203125 330.617188 56.445312 329.691406 57.65625 C 328.769531 58.863281 327.800781 60.039062 326.789062 61.179688 C 325.78125 62.316406 324.730469 63.417969 323.640625 64.480469 C 322.550781 65.542969 321.421875 66.566406 320.257812 67.546875 C 319.09375 68.527344 317.894531 69.464844 316.664062 70.359375 C 315.429688 71.253906 314.167969 72.101562 312.875 72.902344 C 311.578125 73.703125 310.257812 74.457031 308.910156 75.164062 C 307.5625 75.867188 306.1875 76.523438 304.792969 77.128906 L 241.03125 104.8125 L 185.109375 129.085938 C 183.25 129.894531 181.457031 130.832031 179.734375 131.898438 C 178.011719 132.96875 176.375 134.15625 174.824219 135.460938 C 173.273438 136.769531 171.824219 138.179688 170.480469 139.699219 C 169.132812 141.214844 167.90625 142.824219 166.792969 144.519531 C 165.679688 146.214844 164.695312 147.984375 163.839844 149.824219 C 162.988281 151.664062 162.269531 153.554688 161.6875 155.5 C 161.109375 157.441406 160.671875 159.417969 160.378906 161.425781 C 160.085938 163.433594 159.9375 165.453125 159.9375 167.480469 L 159.9375 229.796875 L 227.59375 200.414062 L 205.921875 231.136719 L 198.34375 241.882812 C 196.257812 244.855469 193.550781 247.066406 190.222656 248.515625 L 122.097656 277.992188 L 122.097656 277.761719 L 115.027344 280.800781 C 114.335938 281.097656 113.621094 281.320312 112.886719 281.46875 C 112.148438 281.613281 111.402344 281.683594 110.652344 281.671875 C 109.898438 281.660156 109.15625 281.570312 108.425781 281.40625 C 107.691406 281.238281 106.984375 280.996094 106.300781 280.679688 C 105.621094 280.363281 104.980469 279.980469 104.378906 279.527344 C 103.777344 279.074219 103.230469 278.566406 102.734375 277.996094 C 102.242188 277.429688 101.8125 276.816406 101.445312 276.160156 C 101.082031 275.5 100.789062 274.8125 100.570312 274.09375 C 100.386719 273.457031 100.261719 272.808594 100.195312 272.148438 C 100.128906 271.488281 100.125 270.828125 100.179688 270.167969 C 100.234375 269.507812 100.347656 268.859375 100.523438 268.21875 C 100.695312 267.578125 100.925781 266.960938 101.210938 266.363281 C 101.496094 265.765625 101.835938 265.199219 102.222656 264.664062 C 102.613281 264.125 103.046875 263.628906 103.527344 263.175781 C 104.007812 262.71875 104.523438 262.308594 105.078125 261.945312 C 105.632812 261.585938 106.214844 261.277344 106.828125 261.019531 L 126.109375 252.722656 L 132.058594 250.160156 C 132.664062 249.90625 133.242188 249.601562 133.792969 249.242188 C 134.34375 248.886719 134.855469 248.480469 135.332031 248.027344 C 135.808594 247.574219 136.238281 247.082031 136.621094 246.546875 C 137.007812 246.015625 137.339844 245.453125 137.621094 244.859375 C 137.902344 244.265625 138.125 243.648438 138.292969 243.015625 C 138.460938 242.378906 138.570312 241.734375 138.621094 241.078125 C 138.667969 240.421875 138.660156 239.769531 138.585938 239.113281 C 138.515625 238.460938 138.386719 237.820312 138.195312 237.191406 C 138.007812 236.5625 137.761719 235.953125 137.460938 235.371094 C 137.160156 234.785156 136.808594 234.234375 136.40625 233.714844 C 136.003906 233.195312 135.554688 232.71875 135.066406 232.28125 C 134.574219 231.84375 134.050781 231.457031 133.488281 231.117188 C 132.925781 230.777344 132.335938 230.492188 131.722656 230.261719 C 131.109375 230.027344 130.476562 229.855469 129.832031 229.742188 C 129.183594 229.625 128.53125 229.570312 127.875 229.578125 C 127.21875 229.582031 126.570312 229.648438 125.925781 229.773438 L 45.347656 264 C 44.703125 264.277344 44.039062 264.488281 43.351562 264.632812 C 42.664062 264.78125 41.96875 264.859375 41.265625 264.867188 C 40.5625 264.875 39.867188 264.816406 39.175781 264.6875 C 38.488281 264.5625 37.816406 264.367188 37.164062 264.105469 C 36.511719 263.847656 35.890625 263.523438 35.300781 263.140625 C 34.710938 262.757812 34.164062 262.320312 33.664062 261.832031 C 33.160156 261.339844 32.707031 260.804688 32.3125 260.226562 C 31.914062 259.648438 31.574219 259.035156 31.296875 258.386719 C 31.019531 257.742188 30.808594 257.074219 30.664062 256.386719 C 30.515625 255.699219 30.4375 255.003906 30.429688 254.300781 C 30.421875 253.597656 30.480469 252.902344 30.609375 252.210938 C 30.734375 251.519531 30.929688 250.847656 31.191406 250.191406 C 31.449219 249.539062 31.769531 248.917969 32.152344 248.328125 C 32.535156 247.738281 32.972656 247.191406 33.460938 246.6875 C 33.953125 246.183594 34.488281 245.734375 35.066406 245.335938 C 35.644531 244.9375 36.253906 244.597656 36.902344 244.320312 L 128.972656 205.246094 C 129.035156 205.214844 129.089844 205.203125 129.152344 205.179688 L 136.601562 201.980469 C 137.234375 201.695312 137.839844 201.351562 138.40625 200.949219 C 138.976562 200.546875 139.5 200.09375 139.984375 199.589844 C 140.464844 199.085938 140.890625 198.539062 141.265625 197.953125 C 141.640625 197.363281 141.953125 196.746094 142.207031 196.097656 C 142.460938 195.445312 142.648438 194.777344 142.773438 194.09375 C 142.894531 193.40625 142.953125 192.714844 142.941406 192.019531 C 142.929688 191.320312 142.847656 190.632812 142.703125 189.949219 C 142.558594 189.269531 142.347656 188.605469 142.070312 187.964844 C 141.796875 187.324219 141.464844 186.71875 141.070312 186.144531 C 140.675781 185.566406 140.230469 185.035156 139.734375 184.546875 C 139.234375 184.058594 138.695312 183.625 138.113281 183.242188 C 137.53125 182.859375 136.917969 182.535156 136.273438 182.273438 C 135.628906 182.011719 134.964844 181.8125 134.28125 181.679688 C 133.597656 181.546875 132.90625 181.480469 132.210938 181.484375 C 131.515625 181.484375 130.824219 181.554688 130.140625 181.691406 C 129.460938 181.828125 128.796875 182.03125 128.152344 182.296875 L 122.097656 184.902344 L 122.097656 184.871094 L 116.101562 187.441406 C 115.457031 187.71875 114.789062 187.929688 114.101562 188.078125 C 113.417969 188.222656 112.722656 188.300781 112.019531 188.308594 C 111.320312 188.316406 110.621094 188.257812 109.933594 188.128906 C 109.242188 188 108.570312 187.804688 107.917969 187.546875 C 107.265625 187.285156 106.648438 186.960938 106.058594 186.578125 C 105.46875 186.195312 104.925781 185.761719 104.421875 185.269531 C 103.917969 184.777344 103.46875 184.242188 103.070312 183.664062 C 102.675781 183.085938 102.335938 182.472656 102.058594 181.828125 C 101.78125 181.179688 101.570312 180.515625 101.425781 179.828125 C 101.277344 179.140625 101.203125 178.445312 101.191406 177.742188 C 101.183594 177.039062 101.242188 176.34375 101.371094 175.652344 C 101.5 174.960938 101.691406 174.289062 101.953125 173.636719 C 102.210938 172.984375 102.53125 172.363281 102.914062 171.773438 C 103.296875 171.183594 103.734375 170.636719 104.222656 170.132812 C 104.710938 169.628906 105.246094 169.179688 105.824219 168.78125 C 106.402344 168.382812 107.015625 168.042969 107.660156 167.765625 L 134.070312 156.421875 C 134.238281 156.347656 134.402344 156.300781 134.5625 156.238281 L 145.886719 151.363281 C 146.519531 151.082031 147.121094 150.742188 147.6875 150.34375 C 148.253906 149.941406 148.777344 149.492188 149.253906 148.992188 C 149.734375 148.492188 150.160156 147.949219 150.535156 147.367188 C 150.910156 146.78125 151.222656 146.167969 151.480469 145.523438 C 151.734375 144.878906 151.925781 144.214844 152.050781 143.53125 C 152.175781 142.851562 152.234375 142.160156 152.230469 141.46875 C 152.222656 140.773438 152.148438 140.089844 152.007812 139.410156 C 151.867188 138.730469 151.660156 138.070312 151.390625 137.429688 C 151.125 136.792969 150.796875 136.183594 150.410156 135.609375 C 150.023438 135.035156 149.585938 134.5 149.09375 134.011719 C 148.605469 133.519531 148.070312 133.082031 147.496094 132.695312 C 146.921875 132.308594 146.3125 131.980469 145.675781 131.710938 C 145.035156 131.445312 144.378906 131.238281 143.699219 131.097656 C 143.019531 130.957031 142.335938 130.886719 141.640625 130.878906 C 140.949219 130.871094 140.261719 130.929688 139.582031 131.058594 C 138.898438 131.183594 138.238281 131.375 137.59375 131.632812 L 69.347656 160.984375 C 68.699219 161.261719 68.035156 161.472656 67.347656 161.617188 C 66.660156 161.765625 65.964844 161.839844 65.265625 161.851562 C 64.5625 161.859375 63.867188 161.800781 63.175781 161.671875 C 62.484375 161.542969 61.8125 161.347656 61.160156 161.089844 C 60.507812 160.828125 59.890625 160.507812 59.300781 160.125 C 58.710938 159.742188 58.164062 159.304688 57.660156 158.8125 C 57.160156 158.324219 56.707031 157.789062 56.3125 157.207031 C 55.914062 156.628906 55.574219 156.015625 55.296875 155.371094 C 55.023438 154.722656 54.808594 154.058594 54.664062 153.371094 C 54.519531 152.683594 54.441406 151.988281 54.429688 151.285156 C 54.421875 150.582031 54.480469 149.882812 54.609375 149.191406 C 54.738281 148.5 54.933594 147.828125 55.191406 147.175781 C 55.453125 146.523438 55.773438 145.902344 56.15625 145.3125 C 56.539062 144.722656 56.976562 144.175781 57.464844 143.671875 C 57.957031 143.167969 58.488281 142.71875 59.070312 142.320312 C 59.648438 141.921875 60.257812 141.582031 60.90625 141.304688 L 166.066406 96.066406 Z M 342.636719 19.40625 " fill-opacity="1" fill-rule="nonzero"/></g></svg>